<?xml version="1.0" encoding="utf-8"?>
<!-- Generator: Adobe Illustrator 23.0.0, SVG Export Plug-In . SVG Version: 6.00 Build 0)  -->
<svg version="1.1" id="katman_1" xmlns="http://www.w3.org/2000/svg" xmlns:xlink="http://www.w3.org/1999/xlink" x="0px" y="0px"
	 viewBox="0 0 35 35" style="enable-background:new 0 0 35 35;" xml:space="preserve">
<path d="M10.2,7.7h14.6c1.4,0,2.5,1.1,2.5,2.5v14.6c0,1.4-1.1,2.5-2.5,2.5H10.2c-1.4,0-2.5-1.1-2.5-2.5V10.2
	C7.7,8.8,8.8,7.7,10.2,7.7z M22,9.9c-0.5,0-0.9,0.4-0.9,0.9v2.1c0,0.5,0.4,0.9,0.9,0.9h2.2c0.5,0,0.9-0.4,0.9-0.9v-2.1
	c0-0.5-0.4-0.9-0.9-0.9H22z M25.1,16h-1.7c0.2,0.5,0.3,1.1,0.3,1.7c0,3.3-2.7,5.9-6.1,5.9c-3.4,0-6.1-2.6-6.1-5.9
	c0-0.6,0.1-1.2,0.3-1.7H9.9v8.3c0,0.4,0.4,0.8,0.8,0.8h13.7c0.4,0,0.8-0.3,0.8-0.8V16z M17.5,13.6c-2.2,0-3.9,1.7-3.9,3.8
	c0,2.1,1.8,3.8,3.9,3.8c2.2,0,3.9-1.7,3.9-3.8C21.5,15.3,19.7,13.6,17.5,13.6z"/>
</svg>
