<?xml version="1.0" encoding="utf-8"?>
<!-- Generator: Adobe Illustrator 23.0.0, SVG Export Plug-In . SVG Version: 6.00 Build 0)  -->
<svg version="1.1" id="katman_1" xmlns="http://www.w3.org/2000/svg" xmlns:xlink="http://www.w3.org/1999/xlink" x="0px" y="0px"
	 viewBox="0 0 30 30" style="enable-background:new 0 0 30 30;" xml:space="preserve">
<style type="text/css">
	.st0{fill:#F2EEE8;}
</style>
<g>
	<g>
		<path class="st0" d="M10.1,21c-0.3,0-0.6-0.1-0.8-0.3c-0.4-0.4-0.4-1.1,0-1.5l9.5-9.5c0.4-0.4,1.1-0.4,1.5,0
			c0.4,0.4,0.4,1.1,0,1.5l-9.5,9.5C10.7,20.9,10.4,21,10.1,21L10.1,21z"/>
	</g>
	<g>
		<path class="st0" d="M19.5,16.7c-0.2,0-0.4,0-0.5,0c-0.6-0.1-1-0.6-1-1.2c0.1-0.6,0.6-1,1.2-1c1.1,0.1,2.1-0.3,2.9-1l2.7-2.7
			c1.4-1.4,1.4-3.8,0-5.2l-0.3-0.3c-1.4-1.4-3.8-1.4-5.2,0L16.6,8c-0.8,0.8-1.1,1.8-1,2.9c0.1,0.6-0.4,1.1-1,1.2
			c-0.6,0.1-1.1-0.4-1.2-1c-0.2-1.7,0.5-3.4,1.7-4.6l2.7-2.7c2.3-2.3,6-2.3,8.3,0L26.3,4c2.3,2.3,2.3,6,0,8.3L23.6,15
			C22.5,16.1,21,16.7,19.5,16.7L19.5,16.7z"/>
	</g>
	<g>
		<path class="st0" d="M8.1,28c-1.5,0-3-0.6-4.1-1.7L3.7,26C2.6,24.9,2,23.4,2,21.9c0-1.6,0.6-3,1.7-4.1L6.4,15
			c1.2-1.2,2.9-1.8,4.6-1.7c0.6,0.1,1,0.6,1,1.2c-0.1,0.6-0.6,1-1.2,1c-1.1-0.1-2.1,0.3-2.9,1l-2.7,2.7c-0.7,0.7-1.1,1.6-1.1,2.6
			c0,1,0.4,1.9,1.1,2.6l0.3,0.3c1.4,1.4,3.8,1.4,5.2,0l2.7-2.7c0.8-0.8,1.1-1.8,1-2.9c-0.1-0.6,0.4-1.1,1-1.2c0.6,0,1.1,0.4,1.2,1
			c0.2,1.7-0.5,3.4-1.7,4.6l-2.7,2.7C11.1,27.4,9.6,28,8.1,28L8.1,28z"/>
	</g>
</g>
</svg>
