<?xml version="1.0" encoding="utf-8"?>
<!-- Generator: Adobe Illustrator 23.0.0, SVG Export Plug-In . SVG Version: 6.00 Build 0)  -->
<svg version="1.1" id="katman_1" xmlns="http://www.w3.org/2000/svg" xmlns:xlink="http://www.w3.org/1999/xlink" x="0px" y="0px"
	 viewBox="0 0 50 50" style="enable-background:new 0 0 50 50;" xml:space="preserve">
<style type="text/css">
	.st0{fill:#FFFFFF;}
</style>
<g>
	<g>
		<path class="st0" d="M22.7,32.7c-0.5,0-1-0.2-1.4-0.6l-5-5.2c-0.7-0.8-0.7-2,0.1-2.7c0.8-0.7,2-0.7,2.7,0.1l3.5,3.6l9.6-11.7
			c0.7-0.8,1.9-0.9,2.7-0.3c0.8,0.7,0.9,1.9,0.3,2.7L24.2,32C23.8,32.4,23.3,32.7,22.7,32.7C22.8,32.7,22.7,32.7,22.7,32.7
			L22.7,32.7z"/>
	</g>
	<g>
		<path class="st0" d="M25,47.5c-6,0-11.7-2.3-15.9-6.6c-8.8-8.8-8.8-23.1,0-31.8C13.3,4.8,19,2.5,25,2.5c6,0,11.7,2.3,15.9,6.6
			c8.8,8.8,8.8,23,0,31.8C36.7,45.2,31,47.5,25,47.5L25,47.5z M25,6.3c-5,0-9.7,1.9-13.2,5.5c-7.3,7.3-7.3,19.1,0,26.4
			c3.5,3.5,8.2,5.5,13.2,5.5c5,0,9.7-1.9,13.2-5.5c7.3-7.3,7.3-19.1,0-26.4C34.7,8.3,30,6.3,25,6.3L25,6.3z"/>
	</g>
</g>
</svg>
