<?xml version="1.0" encoding="utf-8"?>
<!-- Generator: Adobe Illustrator 23.0.0, SVG Export Plug-In . SVG Version: 6.00 Build 0)  -->
<svg version="1.1" id="katman_1" xmlns="http://www.w3.org/2000/svg" xmlns:xlink="http://www.w3.org/1999/xlink" x="0px" y="0px"
	 viewBox="0 0 150 150" style="enable-background:new 0 0 150 150;" xml:space="preserve">
<style type="text/css">
	.st0{fill:#FFFFFF;}
	.st1{fill-rule:evenodd;clip-rule:evenodd;fill:#FFFFFF;}
</style>
<g>
	<path class="st0" d="M75,148.7c-40.6,0-73.6-33-73.7-73.6c0-19.7,7.6-38.2,21.5-52.1C36.8,9,55.3,1.4,75,1.4c0,0,0,0,0,0
		c19.7,0,38.1,7.7,52.1,21.5C141,36.8,148.6,55.3,148.7,75l0,0C148.7,115.6,115.6,148.6,75,148.7C75,148.7,75,148.7,75,148.7z
		 M75,7.4C75,7.4,75,7.4,75,7.4c-18.1,0-35.1,7.1-47.9,19.8C14.4,40,7.3,57,7.4,75c0,37.3,30.4,67.6,67.7,67.6c0,0,0,0,0,0
		c37.3,0,67.6-30.4,67.6-67.7l0,0c0-18.1-7.1-35.1-19.8-47.8C110,14.4,93.1,7.4,75,7.4z"/>
</g>
<path class="st0" d="M5.5,91c0,0,19,55.1,67.4,54.6s67.3-42.5,68.4-50.2c1.1-7.7,0-5.5,0-5.5h-27.6l1.1,3.3H86.1l1.1-3.3H62.9
	l1.1,4.4H34.2l1.1-4.4L5.5,91z"/>
<g>
	<path class="st1" d="M33.3,83c1.3,0.3,2.7,0.5,3.9,1c1.2,0.5,2.3,1.1,3,2.3c0.8,1.1,1.2,2.7,1.2,4.8l-37,0c0-2.2,0.5-3.7,1.2-4.8
		c0.8-1.1,1.8-1.8,3-2.3c1.2-0.5,2.5-0.7,3.9-1c1.6-0.3,3.4-0.6,4.8-1.5c0.3-0.2,0.6-0.4,0.9-0.7c0.1-0.1,0.2-0.2,0.4-0.4
		c-0.3-0.2-0.6-0.4-0.8-0.7c-2.2-2-2.7-4.9-3.4-7.7c-0.7-0.4-1.2-1.1-1.5-1.8c-0.3-0.7-0.5-1.5-0.5-2.2c0-0.6,0.2-1.3,0.7-1.7
		c0.2-0.2,0.5-0.3,0.8-0.3c-2.4-14.5,20.5-14.5,18,0c0.3,0,0.5,0.1,0.8,0.3c0.5,0.4,0.7,1.1,0.7,1.7c0,0.7-0.2,1.5-0.5,2.2
		c-0.3,0.7-0.8,1.4-1.5,1.8c-0.6,2.7-1.1,5.7-3.3,7.7c-0.3,0.2-0.5,0.5-0.8,0.7c0.1,0.1,0.2,0.3,0.4,0.4c0.3,0.3,0.6,0.5,0.9,0.7
		C29.9,82.4,31.7,82.7,33.3,83L33.3,83z M19.1,80.7c-0.3,0.4-0.6,0.7-1,1c-0.3,0.3-0.7,0.5-1.1,0.7c1.8,0.9,3.9,1.5,6,1.5
		c2.2,0,4.2-0.5,6-1.5c-0.4-0.2-0.8-0.4-1.1-0.7c-0.4-0.3-0.7-0.6-1-1c-1.2,0.7-2.5,1-3.9,1C21.6,81.7,20.3,81.4,19.1,80.7
		L19.1,80.7z M14.9,71.7c2.9,5.4,4.7,0.1,8,0.1c3.3,0,5.1,5.2,8-0.1c0,0,0,0,0-0.1c0.5-0.2,1.1-0.8,1.5-1.6c0.6-1.3,0.6-2.8-0.1-3.3
		c-0.7-0.6-1.6,0.4-1.9,1c-0.1-2-0.5-3.5-1.4-4.3c-1.8-1.7-4.1-0.1-6.2-0.1c-2,0-4.4-1.5-6.2,0.1c-0.9,0.8-1.3,2.2-1.4,4.3
		c-0.3-0.5-1.2-1.5-1.9-1c-0.6,0.5-0.7,2-0.1,3.3C13.8,70.9,14.4,71.5,14.9,71.7C14.9,71.7,14.9,71.7,14.9,71.7L14.9,71.7z
		 M22.9,76.6c2.4,0,3.4-0.4,3.4-0.9c-0.1-0.4-1.2-1.4-3.4-1.4s-3.3,0.9-3.4,1.4C19.5,76.2,20.6,76.6,22.9,76.6z"/>
	<path class="st1" d="M65.6,67.1c-0.6,0.5-0.7,2-0.1,3.3c0.4,0.9,1,1.5,1.5,1.6c1,4.7,3.9,7.3,6.9,7.8c-0.4-0.8-0.8-1.6-0.9-2.8
		l4.1,0c-0.2,1.2-0.5,2-0.9,2.8c3.1-0.5,6-3.1,6.9-7.8c0.5-0.2,1.1-0.8,1.5-1.6c0.6-1.3,0.6-2.8-0.1-3.3c-0.7-0.6-1.6,0.4-1.9,1
		c-0.1-2-0.5-3.5-1.4-4.3c-0.6-0.6-1.3-0.8-2-0.8c1,1.1,1.7,2.5,2,3.9c-0.7-1.5-1.8-2.7-3.3-3.6c0.9,0.8,1.5,1.9,1.8,3.1
		c-0.7-1.2-1.8-2.3-3.3-2.9c0.7,0.5,1.3,1.2,1.7,1.9c-1.8-1.8-7.2-3.5-9.2-1.6c-0.9,0.8-1.3,2.2-1.4,4.3
		C67.2,67.5,66.3,66.5,65.6,67.1L65.6,67.1z M84.1,66.4c0.3,0,0.5,0.1,0.8,0.3c0.5,0.4,0.7,1.1,0.7,1.7c0,0.7-0.2,1.5-0.5,2.2
		c-0.3,0.7-0.8,1.4-1.5,1.8c-0.8,3.4-2.5,5.7-4.6,7c0.3,0.5,0.8,1,1.3,1.4c0.7,0.5,1.6,0.9,2.4,1.2c2.6,0.8,5.7,0.8,8.1,2.3
		c0.6,0.4,1.1,0.8,1.5,1.4c1.1,1.4,1.4,3.3,1.4,5l-37,0c0-1.8,0.3-3.6,1.4-5.1c0.4-0.6,0.9-1,1.5-1.4c2.4-1.5,5.4-1.5,8.1-2.3
		c0.9-0.3,1.7-0.6,2.4-1.2c0.5-0.4,0.9-0.8,1.3-1.4c-2.1-1.3-3.8-3.6-4.6-7c-0.7-0.4-1.2-1.1-1.5-1.8c-0.3-0.7-0.5-1.5-0.5-2.2
		c0-0.6,0.2-1.3,0.7-1.7c0.2-0.2,0.5-0.3,0.8-0.3C63.6,51.9,86.5,51.9,84.1,66.4L84.1,66.4z M75.1,73.4c2.9-1.7,4.7,1.9,4.9,3.4
		c-1.7-2.4-3.6-0.4-4.9-2.6c-1.3,2.1-3.1,0.2-4.9,2.6C70.4,75.3,72.2,71.7,75.1,73.4L75.1,73.4z M75.1,82c0.3-0.6,0.5-1.1,0.8-1.6
		c0.9-0.1,1.8-0.4,2.7-0.8c0.4,0.6,0.8,1.1,1.4,1.6c0.2,0.2,0.5,0.3,0.8,0.5c0.1,2.5-0.5,5.5-1.2,8.4l-8.8,0
		c-0.8-2.9-1.3-5.9-1.2-8.4c0.3-0.1,0.5-0.3,0.8-0.5c0.6-0.5,1.1-1,1.4-1.6c0.9,0.4,1.7,0.7,2.7,0.8C74.5,80.9,74.8,81.4,75.1,82z"
		/>
	<path class="st1" d="M132.1,88.1c-1-1-2-1.8-3.1-2.5l-1,2.1l1.4,2.5l2.3,0C131.8,89.5,132,88.8,132.1,88.1L132.1,88.1z M129,67.5
		c-0.7,0.2-1,0.6-1.8,0.6s-1.1-0.4-1.8-0.6c-1.2-0.4-2.5-0.4-3.7-0.2l-2,0.2c0,0-0.1,0-0.1,0c0.1-1.8,0.6-3,1.4-3.8
		c2-1.9,7.4-0.1,9.2,1.6c-0.4-0.7-1-1.4-1.7-1.9c1.4,0.6,2.5,1.6,3.3,2.9c-0.3-1.2-1-2.2-1.8-3.1c1.5,0.9,2.6,2.1,3.3,3.6
		c-0.3-1.4-1-2.8-2-3.9c0.7,0,1.4,0.2,2,0.8c0.8,0.7,1.2,2,1.4,3.8c0,0-0.1,0-0.1,0l-2-0.2C131.5,67.2,130.1,67.2,129,67.5L129,67.5
		z M119.4,67.7c-0.4-0.5-1.1-1-1.7-0.6c-0.6,0.5-0.7,2-0.1,3.3c0.4,0.9,1,1.5,1.5,1.6c2.2,10.6,13.9,10.6,16.1,0
		c0.5-0.2,1.1-0.8,1.5-1.6c0.6-1.3,0.6-2.8-0.1-3.3c-0.6-0.4-1.2,0.1-1.6,0.6c0.2,0.2,0.2,0.5-0.1,0.9c-0.2,0.3-0.4,0.6-0.5,0.9
		c-0.1,0.4-0.2,0.7-0.4,1c-0.7,1.4-5.1,1.4-5.8,0c-0.1-0.3-0.2-0.6-0.4-0.9c-0.2-0.2-0.4-0.3-0.7-0.3c-0.3,0-0.5,0.1-0.7,0.3
		c-0.2,0.2-0.3,0.6-0.4,0.9c-0.7,1.4-5.1,1.4-5.8,0c-0.2-0.3-0.2-0.6-0.4-1c-0.1-0.4-0.3-0.6-0.5-0.9
		C119.2,68.2,119.2,67.8,119.4,67.7L119.4,67.7z M118.2,66.4c-2.4-14.5,20.5-14.5,18,0c0.3,0,0.5,0.1,0.8,0.3
		c0.5,0.4,0.7,1.1,0.7,1.7c0,0.7-0.2,1.5-0.5,2.2c-0.3,0.7-0.8,1.4-1.5,1.8c-0.8,3.4-2.5,5.7-4.6,7c0.7,1.2,1.9,1.9,3.2,2.4
		c1,0.4,2.1,0.6,3.1,0.8c2.2,0.4,4.6,0.8,6.3,2.4c0.4,0.4,0.8,0.8,1,1.4c0.7,1.3,0.9,2.9,0.9,4.4l-37,0c0-1.6,0.2-3.2,1-4.6
		c0.3-0.5,0.7-1,1.2-1.4c1.9-1.6,4.5-1.8,6.8-2.3c1-0.2,2-0.5,3-0.9c1.1-0.5,2-1.2,2.6-2.2c-2.1-1.3-3.8-3.6-4.6-7
		c-0.7-0.4-1.2-1.1-1.5-1.8c-0.3-0.7-0.5-1.5-0.5-2.2c0-0.6,0.2-1.3,0.7-1.7C117.7,66.5,117.9,66.4,118.2,66.4L118.2,66.4z
		 M130.7,79.6c0.4,0.6,0.8,1.1,1.4,1.5c-1.4,1.4-3.1,2.6-4.9,3.4c-1.8-0.8-3.4-1.9-4.9-3.4c0.6-0.4,1-1,1.4-1.5
		C126,80.8,128.5,80.8,130.7,79.6L130.7,79.6z M120.5,68.7c0,0.5,0,1.2,0.3,1.7c0.6,1.3,4.2,1.3,4.8,0c0.2-0.5,0.3-1.1,0.3-1.7
		c0-1-2-1.2-2.7-1.2C122.5,67.5,120.5,67.7,120.5,68.7L120.5,68.7z M133.9,68.7c0-1-2-1.2-2.7-1.2c-0.7,0-2.7,0.2-2.7,1.2
		c0,0.5,0,1.2,0.3,1.7c0.6,1.3,4.2,1.3,4.8,0C133.9,69.8,133.9,69.2,133.9,68.7L133.9,68.7z M125.5,85.6c-1.1,0.7-2.2,1.5-3.1,2.5
		c0.1,0.7,0.3,1.4,0.5,2.1l2.3,0l1.4-2.5L125.5,85.6L125.5,85.6z M122.2,87.5c-0.4-2-0.7-4-0.6-5.8c0.1-0.1,0.2-0.1,0.4-0.2
		c1.2,1.2,2.6,2.3,4.2,3.1C124.7,85.3,123.4,86.3,122.2,87.5L122.2,87.5z M132.5,81.5c0.1,0.1,0.2,0.1,0.4,0.2
		c0,1.8-0.2,3.7-0.6,5.8c-1.2-1.1-2.5-2.1-3.9-2.9C129.9,83.8,131.3,82.7,132.5,81.5z"/>
	<path class="st1" d="M52.7,84.9c0.2,0.3,0.5,0.5,0.8,0.8c1.2,0.9,2.9,1.1,4.3,1.4c1.4,0.3,3,0.6,4.2,1.5c1.8,1.3,2.4,3.3,2.4,5.5
		l0,0.5l-30.7,0l0-0.5c0-2.1,0.5-4.2,2.4-5.5c0.4-0.3,0.8-0.5,1.2-0.6c0.1,0.5,0.2,0.9,0.4,1.4c1.1,2.4,3.5,3.9,6.1,4.3l1.1,0.2
		l-0.6-1c-0.6-1-1-2.1-0.5-3.2c0.1-0.2,0.2-0.3,0.2-0.5c2.2,2,5.8,3.3,9.9,3.3c3.5,0,6.6-0.9,8.8-2.5c-3-3.9-10.9-0.6-11.3-7.6
		c-0.1,0.1-0.3,0.1-0.4,0.2c-1.8,1-2.2,1-4,0c-0.1-0.1-0.2-0.1-0.3-0.2c-0.1,3.8-2.6,5-3.5,7c-0.6,1.3-0.1,2.6,0.5,3.7
		c-2.4-0.4-4.7-1.7-5.7-4c-1.6-3.6,2.6-6.7,1.8-10.2c-0.3-1.4-1-2.9-1.7-4.5c-3-7.5,1.8-17,10.8-16.2C61.6,59.2,60.8,78.3,52.7,84.9
		L52.7,84.9z M57.1,72.8c-0.3,0.8-0.7,1.5-1.5,2.2c1.4-3.2,0.8-6.3-1.3-7.8c-1.2,1.9-3.2,3.2-5.6,3.7c1.4-0.8,2.5-2,3.2-3.5
		c-1.5,2.7-4.7,4.1-7.8,3.6c1.9-0.4,3.7-1.5,4.8-3.1c-1,1.1-3.7,2.3-6.9,2.2c-0.5,3.7,0.8,7.6,4.1,10c-1.4-0.6-2.6-1.1-3.4-2.4
		c0.8,2,2.6,3.5,4.5,4.5c1.6,0.9,1.8,0.9,3.5,0C54.2,80.3,56.4,76.5,57.1,72.8z"/>
	<path class="st1" d="M112.7,87.3c0.5,0.2,1,0.4,1.4,0.7c1.8,1.3,2.4,3.3,2.4,5.5l0,0.5l-30.7,0l0-0.5c0-2.1,0.5-4.2,2.4-5.5
		c0.4-0.3,0.9-0.5,1.4-0.7c-0.5-12.8-0.2-28.6,11.6-28.6C112.9,58.7,113.3,74.5,112.7,87.3L112.7,87.3z M102.7,70.8
		c1-0.3,2.2-0.3,3.3-0.2l1.7,0.2l0,0c0-0.7-0.1-1.4-0.1-2.1l-8.1,0l-0.6-4.4l-0.6,4.4l-0.5,0l-0.4-2.8L97,68.6l-2.4,0
		c0,0.7-0.1,1.4-0.1,2.1l0,0l1.7-0.2c1.1-0.1,2.3-0.1,3.3,0.2c0.6,0.2,0.9,0.6,1.6,0.6C101.8,71.3,102.1,71,102.7,70.8L102.7,70.8z
		 M94.5,72c0,0.6-0.1,1.3,0,1.9c0.1,2.7,1.4,5,3.4,6.6c0.5,0.4,1,0.7,1.6,1c1.6,0.9,1.8,0.9,3.5,0c0.6-0.3,1.1-0.6,1.6-1
		c2-1.6,3.3-3.9,3.4-6.6c0-0.6,0-1.3,0-1.9c-0.3,0.5-0.3,0.9-0.6,1.4c-0.6,1.3-4.5,1.3-5.2,0c-0.2-0.5-0.2-1-1-1c-0.7,0-0.7,0.5-1,1
		c-0.6,1.3-4.5,1.3-5.2,0C94.7,72.8,94.8,72.5,94.5,72L94.5,72z M95.2,71.8c0,0.5,0,1,0.2,1.5c0.5,1.1,3.7,1.1,4.2,0
		c0.2-0.4,0.2-1,0.2-1.5C100,70.5,95.2,70.5,95.2,71.8L95.2,71.8z M107,71.8c0-1.3-4.7-1.3-4.7,0c0,0.5,0,1,0.2,1.5
		c0.5,1.1,3.7,1.1,4.2,0C107,72.9,107,72.3,107,71.8L107,71.8z M103.5,81.8c-0.1,0.1-0.3,0.1-0.4,0.2c-1.8,1-2.2,1-4,0
		c-0.1-0.1-0.3-0.1-0.4-0.2c-0.3,3.9-3.5,4.7-7.3,5.5c2,2.7,5.5,4.5,9.6,4.5c4.1,0,7.7-1.8,9.6-4.5C107,86.4,103.8,85.6,103.5,81.8z
		"/>
</g>
</svg>
