<?xml version="1.0" encoding="utf-8"?>
<!-- Generator: Adobe Illustrator 23.0.0, SVG Export Plug-In . SVG Version: 6.00 Build 0)  -->
<svg version="1.1" id="katman_1" xmlns="http://www.w3.org/2000/svg" xmlns:xlink="http://www.w3.org/1999/xlink" x="0px" y="0px"
	 viewBox="0 0 150 150" style="enable-background:new 0 0 150 150;" xml:space="preserve">
<style type="text/css">
	.st0{fill-rule:evenodd;clip-rule:evenodd;fill:#FFFFFF;}
	.st1{fill:#FFFFFF;}
</style>
<g>
	<g>
		<g>
			<path class="st0" d="M69.4,69.7L57.8,58.9c-1-1.3-1.6-2.8-1.4-4.5l-1.9-18.4c-0.2-2.3,6.7-3.7,7.5-0.9l2.4,18.3l6.3,5.1l9.8,1.3
				c9,1.2,18.5,1.9,19,6.5l2.5,19l-0.2,19.6c0,1-0.4,1.8-1.4,2.1l-2.7,0.4c-1,0.2-1.5-0.1-1.6-1l-2-28.2c0-0.8-0.9-0.8-0.9,0l0.6,31
				l0.4,36h-7.5l-4.1-41.2h-2l-4.1,41.2h-7.5l0.4-36l0.1-39.2L69.4,69.7L69.4,69.7z M73.7,45.8c-0.2,2.1,0.3,7,1.3,8.8
				c0.9,1.6,3,3.2,5.3,3.7c1,0.1,1.6,0.1,2.5,0c2.3-0.5,4.4-2.1,5.3-3.7c1-1.8,1.5-6.7,1.3-8.8c-0.4-4-3.9-5.9-7.9-5.9
				C77.6,39.9,74.1,41.9,73.7,45.8z"/>
		</g>
		<g>
			<path class="st0" d="M72.8,28.9c0.5,0,1,0,1.4,0c1.5-0.1,3.3-0.7,4-2.2l2.2-4.8l-3.5-1.6l-3.2,7.1C73.4,28,73.1,28.5,72.8,28.9
				L72.8,28.9z M78.5,16.7l7.2,3.2l-3.8,8.4c-1.8,3.9-6.3,4.9-10.1,4.5c-1-0.1-2.1-0.3-3.1-0.6c-1.9,0.9-4.1,1.3-6.1,1.3l-1.3,6.9
				l3.4,1.5l-1.2,4.2L47.5,39l2.4-3.7l3.4,1.5l4.3-5.5c-1.4-1.5-2.5-3.4-3.1-5.5c-0.9-0.6-1.7-1.2-2.5-1.9
				c-2.9-2.6-5.1-6.6-3.4-10.6l3.8-8.4l7.2,3.2l0.9-1.9l18.9,8.5L78.5,16.7L78.5,16.7z M54.3,20.5c0.1-0.5,0.3-1.1,0.5-1.6l3.2-7.1
				l-3.5-1.6l-2.2,4.8c-0.7,1.5,0.1,3.2,1,4.4C53.6,19.8,53.9,20.2,54.3,20.5z"/>
		</g>
	</g>
	<g>
		<path class="st1" d="M75,148.7c-40.6,0-73.6-33-73.6-73.7c0-40.6,33-73.6,73.6-73.6c40.6,0,73.7,33,73.7,73.6
			C148.6,115.6,115.6,148.7,75,148.7z M75,7.3C37.7,7.3,7.4,37.7,7.4,75c0,37.3,30.3,67.7,67.6,67.7c37.3,0,67.7-30.3,67.7-67.7
			C142.6,37.7,112.3,7.3,75,7.3z"/>
	</g>
</g>
</svg>
