<?xml version="1.0" encoding="utf-8"?>
<!-- Generator: Adobe Illustrator 23.0.0, SVG Export Plug-In . SVG Version: 6.00 Build 0)  -->
<svg version="1.1" id="katman_1" xmlns="http://www.w3.org/2000/svg" xmlns:xlink="http://www.w3.org/1999/xlink" x="0px" y="0px"
	 viewBox="0 0 50 50" style="enable-background:new 0 0 50 50;" xml:space="preserve">
<style type="text/css">
	.st0{fill:#FFFFFF;}
</style>
<g>
	<g>
		<path class="st0" d="M38.4,47.5c-0.4,0-0.8-0.1-1.1-0.4L25,38.2l-12.3,8.9c-0.7,0.5-1.5,0.5-2.2,0c-0.7-0.5-0.9-1.3-0.7-2.1
			l4.7-14.5L2.2,21.6c-0.7-0.5-0.9-1.3-0.7-2.1c0.3-0.8,1-1.3,1.8-1.3h15.2l4.7-14.5c0.3-0.8,1-1.3,1.8-1.3s1.5,0.5,1.8,1.3
			l4.7,14.5h15.2c0.8,0,1.5,0.5,1.8,1.3c0.3,0.8,0,1.6-0.7,2.1l-12.3,8.9l4.7,14.5c0.3,0.8,0,1.6-0.7,2.1
			C39.2,47.4,38.8,47.5,38.4,47.5L38.4,47.5z M25,34c0.4,0,0.8,0.1,1.1,0.4l8.8,6.4l-3.4-10.3c-0.2-0.8,0-1.6,0.7-2.1L41,22H30.1
			c-0.8,0-1.5-0.5-1.8-1.3L25,10.4l-3.3,10.3c-0.2,0.8-1,1.3-1.8,1.3H9l8.8,6.4c0.7,0.5,0.9,1.3,0.7,2.1l-3.4,10.3l8.8-6.4
			C24.2,34.1,24.6,34,25,34L25,34z"/>
	</g>
</g>
</svg>
