<?xml version="1.0" encoding="utf-8"?>
<!-- Generator: Adobe Illustrator 23.0.0, SVG Export Plug-In . SVG Version: 6.00 Build 0)  -->
<svg version="1.1" id="katman_1" xmlns="http://www.w3.org/2000/svg" xmlns:xlink="http://www.w3.org/1999/xlink" x="0px" y="0px"
	 viewBox="0 0 35 35" style="enable-background:new 0 0 35 35;" xml:space="preserve">
<g>
	<path d="M15.3,4.5h-1.5l-1,3.8l-1-3.8h-1.5c0.3,0.9,0.6,1.8,0.9,2.7c0.5,1.4,0.8,2.4,0.9,3.1v3.9h1.5v-3.9L15.3,4.5z M19.1,11.9
		V9.4c0-0.8-0.1-1.3-0.4-1.7c-0.4-0.5-0.9-0.7-1.5-0.7c-0.7,0-1.2,0.2-1.5,0.7c-0.3,0.4-0.4,0.9-0.4,1.7v2.5c0,0.8,0.1,1.3,0.4,1.7
		c0.4,0.5,0.9,0.7,1.5,0.7c0.7,0,1.2-0.2,1.5-0.7C19,13.2,19.1,12.7,19.1,11.9z M17.8,12.1c0,0.7-0.2,1-0.6,1c-0.4,0-0.6-0.3-0.6-1
		v-3c0-0.7,0.2-1,0.6-1c0.4,0,0.6,0.3,0.6,1V12.1z M24,14.2V7h-1.3v5.5c-0.3,0.4-0.6,0.6-0.8,0.6c-0.2,0-0.3-0.1-0.3-0.3
		c0,0,0-0.2,0-0.5V7h-1.3v5.7c0,0.5,0,0.9,0.1,1.1c0.1,0.4,0.4,0.5,0.8,0.5c0.5,0,1-0.3,1.5-0.9v0.8H24z"/>
	<g>
		<path d="M24.7,21.6c-0.4,0-0.7,0.3-0.7,1v0.7h1.3v-0.7C25.3,21.9,25.1,21.6,24.7,21.6z"/>
		<path d="M19.9,21.6c-0.2,0-0.4,0.1-0.6,0.3v4.4c0.2,0.2,0.4,0.3,0.6,0.3c0.4,0,0.6-0.3,0.6-1v-3.1C20.4,21.9,20.2,21.6,19.9,21.6z
			"/>
		<path d="M27.9,17.9c-0.3-1.1-1.2-2-2.3-2.1c-2.7-0.3-5.4-0.3-8-0.3c-2.7,0-5.4,0-8,0.3c-1.1,0.1-2.1,1-2.3,2.1
			c-0.4,1.6-0.4,3.4-0.4,5.1c0,1.7,0,3.4,0.4,5.1c0.3,1.1,1.2,2,2.3,2.1c2.7,0.3,5.4,0.3,8,0.3c2.7,0,5.4,0,8-0.3
			c1.1-0.1,2.1-1,2.3-2.1c0.4-1.6,0.4-3.4,0.4-5.1C28.2,21.3,28.2,19.6,27.9,17.9z M12.9,19.4h-1.6v8.2H9.9v-8.2H8.4V18h4.5V19.4z
			 M16.8,27.6h-1.3v-0.8c-0.5,0.6-1,0.9-1.5,0.9c-0.4,0-0.7-0.2-0.8-0.5c-0.1-0.2-0.1-0.6-0.1-1.1v-5.7h1.3v5.3c0,0.3,0,0.5,0,0.5
			c0,0.2,0.1,0.3,0.3,0.3c0.3,0,0.5-0.2,0.8-0.6v-5.5h1.3V27.6z M21.7,25.5c0,0.7,0,1.1-0.1,1.4c-0.2,0.5-0.5,0.8-1,0.8
			c-0.5,0-0.9-0.3-1.3-0.8v0.7h-1.3V18h1.3v3.1c0.4-0.5,0.9-0.8,1.3-0.8c0.5,0,0.9,0.3,1,0.8c0.1,0.3,0.1,0.8,0.1,1.4V25.5z
			 M26.6,24.3H24v1.3c0,0.7,0.2,1,0.7,1c0.3,0,0.5-0.2,0.6-0.5c0-0.1,0-0.4,0-0.9h1.3v0.2c0,0.4,0,0.7,0,0.8c0,0.3-0.1,0.5-0.3,0.8
			c-0.4,0.5-0.9,0.8-1.6,0.8c-0.7,0-1.2-0.2-1.6-0.7c-0.3-0.4-0.4-0.9-0.4-1.7v-2.5c0-0.8,0.1-1.3,0.4-1.7c0.4-0.5,0.9-0.7,1.6-0.7
			c0.7,0,1.2,0.2,1.5,0.7c0.3,0.4,0.4,0.9,0.4,1.7V24.3z"/>
	</g>
</g>
</svg>
