<?xml version="1.0" encoding="utf-8"?>
<!-- Generator: Adobe Illustrator 23.0.0, SVG Export Plug-In . SVG Version: 6.00 Build 0)  -->
<svg version="1.1" id="katman_1" xmlns="http://www.w3.org/2000/svg" xmlns:xlink="http://www.w3.org/1999/xlink" x="0px" y="0px"
	 viewBox="0 0 50 50" style="enable-background:new 0 0 50 50;" xml:space="preserve">
<style type="text/css">
	.st0{fill:#FFFFFF;}
</style>
<g>
	<g>
		<path class="st0" d="M25,41C14.9,41,6.1,34.8,3.1,25.6c-0.1-0.4-0.1-0.8,0-1.2C6.1,15.2,14.9,9,25,9c10.1,0,18.9,6.2,21.9,15.4
			c0.1,0.4,0.1,0.8,0,1.2C43.9,34.8,35.1,41,25,41L25,41z M6.9,25c2.7,7.3,9.9,12.2,18.1,12.2c8.2,0,15.4-4.9,18.1-12.2
			c-2.7-7.3-9.9-12.2-18.1-12.2C16.8,12.8,9.6,17.7,6.9,25L6.9,25z"/>
	</g>
	<g>
		<path class="st0" d="M25,35.4c-5.7,0-10.4-4.6-10.4-10.4c0-1.1,0.9-1.9,1.9-1.9c1.1,0,1.9,0.9,1.9,1.9c0,3.6,2.9,6.5,6.5,6.5
			c3.6,0,6.5-2.9,6.5-6.5c0-3.6-2.9-6.5-6.5-6.5c-1.1,0-1.9-0.9-1.9-1.9c0-1.1,0.9-1.9,1.9-1.9c5.7,0,10.3,4.6,10.3,10.3
			C35.3,30.7,30.7,35.4,25,35.4L25,35.4z"/>
	</g>
</g>
</svg>
