<?xml version="1.0" encoding="utf-8"?>
<!-- Generator: Adobe Illustrator 23.0.0, SVG Export Plug-In . SVG Version: 6.00 Build 0)  -->
<svg version="1.1" id="katman_1" xmlns="http://www.w3.org/2000/svg" xmlns:xlink="http://www.w3.org/1999/xlink" x="0px" y="0px"
	 viewBox="0 0 212.2 107.3" style="enable-background:new 0 0 212.2 107.3;" xml:space="preserve">
<style type="text/css">
	.st0{opacity:0;fill:#FFFFFF;}
	.st1{opacity:7.692308e-02;fill:#EEEEEE;}
	.st2{opacity:0.1538;fill:#DDDDDD;}
	.st3{opacity:0.2308;fill:#CCCBCC;}
	.st4{opacity:0.3077;fill:#BBBABA;}
	.st5{opacity:0.3846;fill:#AAA9A9;}
	.st6{opacity:0.4615;fill:#999898;}
	.st7{opacity:0.5385;fill:#898687;}
	.st8{opacity:0.6154;fill:#787576;}
	.st9{opacity:0.6923;fill:#676465;}
	.st10{opacity:0.7692;fill:#565353;}
	.st11{opacity:0.8462;fill:#454142;}
	.st12{opacity:0.9231;fill:#343031;}
	.st13{fill:#231F20;}
	.st14{fill:url(#SVGID_1_);}
	.st15{fill:url(#SVGID_2_);}
	.st16{fill:#FFFFFF;}
</style>
<g>
	<g>
		<g>
			<g>
				<polygon class="st0" points="27.3,69.9 0,43.3 37.7,37.9 54.6,3.8 71.5,37.9 105.5,44.2 67.2,45.8 54.9,22.3 44.9,45.8 19,49.2 
					37.2,66.3 32.1,91.9 54.3,88.3 20.9,107.3 				"/>
				<polygon class="st1" points="27.5,69.6 0.1,43.1 37.9,37.6 54.8,3.5 71.6,37.6 105.6,43.9 67.4,45.5 55.1,22 45,45.5 19.2,48.9 
					37.4,66 32.2,91.6 54.4,88 21,107 				"/>
				<polygon class="st2" points="27.6,69.3 0.3,42.8 38,37.3 54.9,3.2 71.8,37.3 105.8,43.6 67.5,45.2 55.2,21.7 45.2,45.2 
					19.3,48.6 37.5,65.7 32.4,91.3 54.6,87.7 21.2,106.8 				"/>
				<polygon class="st3" points="27.7,69 0.4,42.5 38.2,37 55.1,2.9 71.9,37 105.9,43.3 67.6,44.9 55.4,21.4 45.3,45 19.5,48.3 
					37.7,65.5 32.5,91.1 54.7,87.4 21.3,106.5 				"/>
				<polygon class="st4" points="27.9,68.7 0.6,42.2 38.3,36.7 55.2,2.6 72.1,36.7 106.1,43.1 67.8,44.6 55.5,21.1 45.5,44.7 
					19.6,48 37.8,65.2 32.7,90.8 54.9,87.1 21.4,106.2 				"/>
				<polygon class="st5" points="28,68.4 0.7,41.9 38.5,36.4 55.4,2.3 72.2,36.4 106.2,42.8 67.9,44.3 55.7,20.8 45.6,44.4 
					19.8,47.7 38,64.9 32.8,90.5 55,86.9 21.6,105.9 				"/>
				<polygon class="st6" points="28.2,68.1 0.9,41.6 38.6,36.1 55.5,2 72.4,36.1 106.3,42.5 68.1,44 55.8,20.5 45.7,44.1 19.9,47.4 
					38.1,64.6 33,90.2 55.2,86.6 21.7,105.6 				"/>
				<polygon class="st7" points="28.3,67.8 1,41.3 38.8,35.8 55.6,1.8 72.5,35.8 106.5,42.2 68.2,43.7 55.9,20.2 45.9,43.8 20,47.1 
					38.3,64.3 33.1,89.9 55.3,86.3 21.9,105.3 				"/>
				<polygon class="st8" points="28.5,67.5 1.2,41 38.9,35.5 55.8,1.5 72.7,35.5 106.6,41.9 68.4,43.4 56.1,19.9 46,43.5 20.2,46.8 
					38.4,64 33.2,89.6 55.4,86 22,105 				"/>
				<polygon class="st9" points="28.6,67.3 1.3,40.7 39.1,35.3 55.9,1.2 72.8,35.3 106.8,41.6 68.5,43.1 56.2,19.7 46.2,43.2 
					20.3,46.5 38.6,63.7 33.4,89.3 55.6,85.7 22.2,104.7 				"/>
				<polygon class="st10" points="28.8,67 1.5,40.4 39.2,35 56.1,0.9 73,35 106.9,41.3 68.7,42.8 56.4,19.4 46.3,42.9 20.5,46.3 
					38.7,63.4 33.5,89 55.7,85.4 22.3,104.4 				"/>
				<polygon class="st11" points="28.9,66.7 1.6,40.1 39.3,34.7 56.2,0.6 73.1,34.7 107.1,41 68.8,42.6 56.5,19.1 46.5,42.6 
					20.6,46 38.9,63.1 33.7,88.7 55.9,85.1 22.5,104.1 				"/>
				<polygon class="st12" points="29.1,66.4 1.8,39.8 39.5,34.4 56.4,0.3 73.3,34.4 107.2,40.7 69,42.3 56.7,18.8 46.6,42.3 
					20.8,45.7 39,62.8 33.8,88.4 56,84.8 22.6,103.8 				"/>
				<polygon class="st13" points="29.2,66.1 1.9,39.6 39.6,34.1 56.5,0 73.4,34.1 107.4,40.4 69.1,42 56.8,18.5 46.8,42 20.9,45.4 
					39.1,62.5 34,88.1 56.2,84.5 22.8,103.5 				"/>
			</g>
			<linearGradient id="SVGID_1_" gradientUnits="userSpaceOnUse" x1="14.4981" y1="74.2422" x2="78.1604" y2="20.8018">
				<stop  offset="0" style="stop-color:#B98600"/>
				<stop  offset="4.783478e-02" style="stop-color:#BC8A01"/>
				<stop  offset="9.599572e-02" style="stop-color:#C59604"/>
				<stop  offset="0.1443" style="stop-color:#D5AA09"/>
				<stop  offset="0.1925" style="stop-color:#EAC610"/>
				<stop  offset="0.2303" style="stop-color:#FFE217"/>
				<stop  offset="0.2704" style="stop-color:#F2D213"/>
				<stop  offset="0.3656" style="stop-color:#D9B00A"/>
				<stop  offset="0.4445" style="stop-color:#C99B05"/>
				<stop  offset="0.497" style="stop-color:#C39403"/>
				<stop  offset="0.7636" style="stop-color:#F7D814"/>
				<stop  offset="0.9818" style="stop-color:#BF8D02"/>
			</linearGradient>
			<polygon class="st14" points="29.2,66.1 1.9,39.6 39.6,34.1 56.5,0 73.4,34.1 107.4,40.4 69.1,42 56.8,18.5 46.8,42 20.9,45.4 
				39.1,62.5 34,88.1 56.2,84.5 22.8,103.5 			"/>
			<linearGradient id="SVGID_2_" gradientUnits="userSpaceOnUse" x1="0.9583" y1="41.2105" x2="88.9207" y2="65.4136">
				<stop  offset="0" style="stop-color:#B98600"/>
				<stop  offset="4.783478e-02" style="stop-color:#BC8A01"/>
				<stop  offset="9.599572e-02" style="stop-color:#C59604"/>
				<stop  offset="0.1443" style="stop-color:#D5AA09"/>
				<stop  offset="0.1925" style="stop-color:#EAC610"/>
				<stop  offset="0.2303" style="stop-color:#FFE217"/>
				<stop  offset="0.2704" style="stop-color:#F2D213"/>
				<stop  offset="0.3656" style="stop-color:#D9B00A"/>
				<stop  offset="0.4445" style="stop-color:#C99B05"/>
				<stop  offset="0.497" style="stop-color:#C39403"/>
				<stop  offset="0.7636" style="stop-color:#F7D814"/>
				<stop  offset="0.9818" style="stop-color:#BF8D02"/>
			</linearGradient>
			<polygon class="st15" points="106.9,40.4 69.7,40.6 56.5,15.3 45.7,40.8 17.9,44.4 37.5,63 32.1,89.9 55.8,84.6 24.5,101.1 
				30.6,65.6 4.8,40.5 40.4,35.3 56.3,3.1 72.3,35.3 			"/>
		</g>
	</g>
	<g>
		<g>
			<path class="st16" d="M61.2,48.7c-0.2,0.1-0.3,0.1-0.2,0.2c0.6,0.3,1.4,0.8,1.6,1.4c0.9,3.4,0.1,10-1.7,14.5
				c-2.3,6-5.6,11.1-9.6,10.6c-4.9-0.7-3.7-7.9-1.4-14.2c2.9-7.6,7.8-14.6,10.1-15c1.3-0.2,2.7,1.5,2.3,1.8
				C62.1,48.3,61.6,48.4,61.2,48.7z M52.2,61.9c-0.7,1.8-3.9,11.4-0.9,11.8c2.4,0.3,5.1-3.8,7.1-8.9c2.3-6,3-13.2,1.2-14.5
				c-0.1-0.1-0.2-0.2-0.4,0.1C56.6,52.7,54.6,56,52.2,61.9z"/>
			<path class="st16" d="M71,60.6c0.3,0,0.6,0.1,0.9,0.3c0.8,0.4,0.5,0.6,0.1,1.7c-0.2,0.6-5.2,14.1-5.5,15.3
				c-0.1,0.5-0.3,0.9-0.3,1.3c-0.1,0.6-0.3,1.3-0.1,1.7c0.1,0.7-0.5,0.8-0.7,0.8c-0.3-0.1-0.9-1-1.3-1.4c-0.3-0.3-0.3-0.8-0.1-1.3
				c1.3-4.3,3.2-8,4.9-12.6c-0.8,1-1.4,2-2.3,2.9c-0.9,0.9-1.8,1.3-1.8,1.3c-1.4,0.2-2.3-1.4-2.4-2.6c-0.1-1.2,1-3.5,1.8-5
				c0.8-1.5,1.2-2.5,1.6-2.3c0.4,0.3,1,1.4,1.2,1.6c0.1,0.2-0.2,0.5-0.5,0.9c-0.3,0.4-1.3,2.3-1.9,3.8c-0.6,1.6,0.1,1.7,0.1,1.7
				c1.3-0.5,4.9-5.2,5.6-6.1c0.1-0.3,0.4-1,0.4-1.5C70.5,60.7,70.6,60.6,71,60.6z"/>
			<path class="st16" d="M75.6,61c0.6,0,1.5,0.8,1.5,1.2c0,0.3-0.2,0.3-0.3,0.5c-0.7,0.9-1.5,2.2-2,3.2c-0.4,0.9-0.5,2.2,0.2,1.9
				c1.3-0.3,3.9-3.9,4.5-4.7c0.4-0.5,0.7-0.9,0.9-1.1c0.3-0.3,0.3-0.3,0.6,0c0.2,0.3,0.4,0.5,0.6,0.8c0.3,0.5,0.3,0.5-0.2,1
				c-0.9,1-2.1,3.7-1.3,4.1c1.4,0,4-2.5,4.6-3.1c0.3-0.3,0.4,0.3,0.4,0.4c-0.2,0.7-3.5,4-4.5,4.5c-0.9,0.4-1.5,0-1.5,0
				c-1.2-0.9-1-2.3-1-2.3s-1.7,1.8-2.6,2.3c-1,0.5-1.5,0.1-2.3-1c-0.4-0.5-0.5-1-0.4-1.7c0.3-1.7,1.7-3.9,2.5-5.4
				C75.2,61.1,75.3,61,75.6,61z"/>
			<path class="st16" d="M86.2,61.2c0-0.2,0-0.3,0.2-0.2c0.3,0.1,1.3,0.5,1.5,1.3c0.1,0.3,0,0.4-0.3,0.8c-0.2,0.4-1.6,3.2-2,4
				c-0.1,0.3,0.1,0.3,0.2,0.3c1-1.4,2.8-3.6,3.6-4.5c2.1-2.3,3.6-0.3,3,1.4c-0.3,0.7-0.6,2.1-0.7,2.8c-0.1,2.1,4-0.6,4.5-1
				c0.3-0.3,0.4,0.1,0.4,0.3c0.1,0.2,0,0.2-0.3,0.5c-0.8,0.9-3.3,2.5-4.5,2.7c-0.4,0.1-0.8,0-1.1,0c-0.5-0.2-0.9-0.5-1.1-1.1
				c-0.3-0.9,0.3-3.2,0.5-3.9c0-0.2-0.1-0.2-0.4,0c-0.8,0.8-2.9,3.5-4.7,5.7c-0.3,0.3-0.9,0.1-1.4-0.3c-0.7-0.6-0.8-0.5-0.5-1.4
				c0.6-1.6,2.3-5.7,3-7C86.2,61.4,86.2,61.3,86.2,61.2z"/>
			<path class="st16" d="M96.5,68.9c0,0.1,0.1,0.2,0.2,0.2c1.3,0.4,2.8,0.2,4.3-0.4c2.2-1,3-2.1,3.9-3c0.4-0.3,0.8,0.3,0.6,0.4
				c-1.2,1.6-2.5,2.8-4.2,3.8c-1.7,1-3.5,1.3-4.6,0.8c-1.3-0.7-2.2-2.3-2.1-3.5c0.3-2.6,3-5,6.2-6c1-0.3,1.6,0.1,1.8,0.7
				c0.5,1.2-0.5,2.7-1.2,3.4c-0.4,0.5-0.4-0.1-0.4-0.3v-1.3C99.2,64.3,96.4,66.3,96.5,68.9z"/>
			<path class="st16" d="M107.4,61c0.6,0,1.5,0.8,1.5,1.2c0,0.3-0.2,0.3-0.3,0.5c-0.7,0.9-1.5,2.2-2,3.2c-0.4,0.9-0.5,2.2,0.2,1.9
				c1.3-0.3,3.9-3.9,4.5-4.7c0.4-0.5,0.7-0.9,0.9-1.1c0.3-0.3,0.3-0.3,0.6,0c0.2,0.3,0.4,0.5,0.6,0.8c0.3,0.5,0.3,0.5-0.2,1
				c-0.9,1-2.1,3.7-1.3,4.1c1.4,0,4-2.5,4.6-3.1c0.3-0.3,0.4,0.3,0.4,0.4c-0.2,0.7-3.5,4-4.5,4.5c-0.9,0.4-1.5,0-1.5,0
				c-1.2-0.9-1-2.3-1-2.3s-1.7,1.8-2.6,2.3c-1,0.5-1.5,0.1-2.3-1c-0.4-0.5-0.5-1-0.4-1.7c0.3-1.7,1.7-3.9,2.5-5.4
				C107,61.1,107.1,61,107.4,61z"/>
			<path class="st16" d="M135.4,48.7c-0.2,0.1-0.3,0.1-0.2,0.2c0.6,0.3,1.4,0.8,1.6,1.4c0.9,3.4,0.1,10-1.7,14.5
				c-2.3,6-5.6,11.1-9.6,10.6c-4.9-0.7-3.7-7.9-1.4-14.2c2.9-7.6,7.8-14.6,10.1-15c1.3-0.2,2.7,1.5,2.3,1.8
				C136.3,48.3,135.8,48.4,135.4,48.7z M126.4,61.9c-0.7,1.8-3.9,11.4-0.9,11.8c2.4,0.3,5.1-3.8,7.1-8.9c2.3-6,3-13.2,1.2-14.5
				c-0.1-0.1-0.2-0.2-0.4,0.1C130.8,52.7,128.8,56,126.4,61.9z"/>
			<path class="st16" d="M144.8,52.6c0.3,0.3,0.1,0.5-0.1,0.8c-1,1.4-5.7,12.2-5.7,14.9c0,0.4,0.2,0.4,0.6,0.5
				c1.2,0.3,3.5-0.9,5.5-3.4c0.2-0.3,0.5,0.6,0.3,0.9c-1.7,2.6-4.3,4.9-6,4.4c-1.2-0.4-2.6-1.9-2.4-3.2c0.5-3.6,4.3-12.8,6-15.9
				c0.3-0.4,0.3-0.3,0.6-0.1C144,51.7,144.5,52.2,144.8,52.6z"/>
			<path class="st16" d="M147,61c0.6,0,1.5,0.8,1.5,1.2c0,0.3-0.2,0.3-0.3,0.5c-0.7,0.9-1.5,2.2-2,3.2c-0.4,0.9-0.5,2.2,0.2,1.9
				c1.3-0.3,3.9-3.9,4.5-4.7c0.4-0.5,0.7-0.9,0.9-1.1c0.3-0.3,0.3-0.3,0.6,0c0.2,0.3,0.4,0.5,0.6,0.8c0.3,0.5,0.3,0.5-0.2,1
				c-0.9,1-2.1,3.7-1.3,4.1c1.4,0,4-2.5,4.6-3.1c0.3-0.3,0.4,0.3,0.4,0.4c-0.2,0.7-3.5,4-4.5,4.5c-0.9,0.4-1.5,0-1.5,0
				c-1.2-0.9-1-2.3-1-2.3s-1.7,1.8-2.6,2.3c-1,0.5-1.5,0.1-2.3-1c-0.4-0.5-0.5-1-0.4-1.7c0.3-1.7,1.7-3.9,2.5-5.4
				C146.6,61.1,146.7,61,147,61z"/>
			<path class="st16" d="M163.2,60.6c0.3,0,0.6,0.1,0.9,0.3c0.8,0.4,0.5,0.6,0.1,1.7c-0.2,0.6-5.2,14.1-5.5,15.3
				c-0.1,0.5-0.3,0.9-0.3,1.3c-0.1,0.6-0.3,1.3-0.1,1.7c0.1,0.7-0.5,0.8-0.7,0.8c-0.3-0.1-0.9-1-1.3-1.4c-0.3-0.3-0.3-0.8-0.1-1.3
				c1.3-4.3,3.2-8,4.9-12.6c-0.8,1-1.4,2-2.3,2.9c-0.9,0.9-1.8,1.3-1.8,1.3c-1.4,0.2-2.3-1.4-2.4-2.6c-0.1-1.2,1-3.5,1.8-5
				c0.8-1.5,1.2-2.5,1.6-2.3c0.4,0.3,1,1.4,1.2,1.6c0.1,0.2-0.2,0.5-0.5,0.9c-0.3,0.4-1.3,2.3-1.9,3.8c-0.6,1.6,0.1,1.7,0.1,1.7
				c1.3-0.5,4.9-5.2,5.6-6.1c0.1-0.3,0.4-1,0.4-1.5C162.7,60.7,162.8,60.6,163.2,60.6z"/>
			<path class="st16" d="M168.3,69.7c-1.2,0.5-2.4-0.1-3.2-1c-0.8-0.9-0.5-2.3-0.5-2.3c0.7-2.8,2.7-4.4,3.6-4.5
				c0.6,0,1.3,0.3,1.7,0.5c0.5-0.9,1.1-1.1,1.7-1.1c1,0.1,2.2,1.2,2.5,2.2c0.2,0.6-0.1,1.3-0.3,1.8c1.3,0,2.7-0.3,3.2-0.5
				c0.3-0.1,0.3,0.1,0.2,0.3c-0.1,0.3-0.2,0.6-0.5,0.7c-1.4,0.4-2.6,0.8-3.9,0.8C171.4,68.2,169.2,69.4,168.3,69.7z M166.5,67.9
				c0,0.3-0.1,0.4,0,0.5c0.7,0.5,3.5-1.4,4.2-2.3c-1.1-0.6-1.3-1.8-1.2-2.6C167.8,63.9,166.7,66.7,166.5,67.9z M171.8,63.2
				c-0.2,0-0.5,0.2-0.6,0.4c-0.2,0.6,0,1.2,0.3,1.5C172,64.6,172.5,63.2,171.8,63.2z"/>
			<path class="st16" d="M179,62.1c0.1,0.3,0,0.4-0.2,0.7c-0.1,0.2-0.7,1.6-0.9,2.1c-0.1,0.2,0.1,0.3,0.3,0.1
				c0.8-1.2,2.8-3.3,4.1-3.6c0.6-0.2,0.8,0.1,1.2,0.5c0.5,0.6,0.3,0.4,0.3,1.2c-0.1,0.9,0.5,2,0.6,2.3c0.2,0.4-0.8,0.7-1.4,0.9
				c-0.3,0.1-0.3,0.1-0.5-0.1c-0.6-0.7-0.8-2.4-0.8-2.6c0-0.1-0.1-0.1-0.3,0c-1.7,0.9-3,3.2-3.3,3.7c-0.6,1.2-1.4,2.6-1.7,3.3
				c-0.3,0.7-0.8,1-1.5,0.4c-0.7-0.6-0.6-1.1-0.6-1.1c0.4-1.1,3.1-8.7,3.1-8.7C177.7,60.8,178.9,61.9,179,62.1z"/>
			<path class="st16" d="M188,61c0.6,0,1.5,0.8,1.5,1.2c0,0.3-0.2,0.3-0.3,0.5c-0.7,0.9-1.5,2.2-2,3.2c-0.4,0.9-0.5,2.2,0.2,1.9
				c1.3-0.3,3.9-3.9,4.5-4.7c0.4-0.5,0.7-0.9,0.9-1.1c0.3-0.3,0.3-0.3,0.6,0c0.2,0.3,0.4,0.5,0.6,0.8c0.3,0.5,0.3,0.5-0.2,1
				c-0.9,1-2.1,3.7-1.3,4.1c1.4,0,4-2.5,4.6-3.1c0.3-0.3,0.4,0.3,0.4,0.4c-0.2,0.7-3.5,4-4.5,4.5c-0.9,0.4-1.5,0-1.5,0
				c-1.2-0.9-1-2.3-1-2.3s-1.7,1.8-2.6,2.3c-1,0.5-1.5,0.1-2.3-1c-0.4-0.5-0.5-1-0.4-1.7c0.3-1.7,1.7-3.9,2.5-5.4
				C187.6,61.1,187.7,61,188,61z"/>
			<path class="st16" d="M201,60.4c0.4,0.3,0.2,0.6-0.2,1c-0.3,0.4-2.7,4.7-3.2,5.6c-0.3,0.6-0.1,0.6,0.4-0.2c1-1.4,3.1-4.1,3.9-4.7
				c0.6-0.5,0.9-0.8,1.7-0.1c0.5,0.4,0.1,1.4-0.1,2c-0.3,0.8-0.5,2.1-0.6,2.4c-0.1,0.5,0,0.3,0.4-0.1c0.7-0.9,2.7-3.9,3.4-4.8
				c0.8-1,1.4-0.4,1.9,0.4c0.4,0.5,0.5,0.6,0,1.3c-0.3,0.4-0.9,2.9-0.7,3.9c0.2,1,3-0.9,4-1.6c0.6-0.5,0.4,0.6,0.3,0.7
				c-1.4,1.3-4,4.1-5.7,2.9c-0.9-0.6-0.6-3.1-0.3-4.9c0.1-0.6-0.9,1.1-2.8,3.5c-0.4,0.5-0.6,0.8-1.2,0.6c-0.4-0.2-0.8-0.3-1-0.6
				c-0.2-0.3-0.1-0.6,0-0.9c0.1-0.3,0.3-1.6,0.5-2.4c0.1-0.4-0.4,0.1-0.8,0.5c-1.2,1.3-2.5,3.3-3.6,5.1c-0.3,0.5-0.6,0.5-1,0.3
				l-0.8-0.4c-0.3-0.3-0.6-0.5-0.5-0.8c0.8-2.3,3.1-7,4.1-8.8c0.1-0.1-0.1-0.4,0-0.5C199.3,59,200.8,60.2,201,60.4z"/>
		</g>
	</g>
</g>
</svg>
