<?xml version="1.0" encoding="utf-8"?>
<!-- Generator: Adobe Illustrator 23.0.0, SVG Export Plug-In . SVG Version: 6.00 Build 0)  -->
<svg version="1.1" id="katman_1" xmlns="http://www.w3.org/2000/svg" xmlns:xlink="http://www.w3.org/1999/xlink" x="0px" y="0px"
	 viewBox="0 0 150 150" style="enable-background:new 0 0 150 150;" xml:space="preserve">
<style type="text/css">
	.st0{fill:#FFFFFF;}
	.st1{fill-rule:evenodd;clip-rule:evenodd;fill:#FFFFFF;}
</style>
<g>
	<g>
		<path class="st0" d="M75,147.8c-40.6,0-73.6-33-73.6-73.7c0-40.6,33-73.6,73.6-73.6c40.6,0,73.7,33,73.7,73.6
			C148.7,114.8,115.6,147.8,75,147.8z M75,6.5C37.7,6.5,7.4,36.8,7.4,74.1c0,37.3,30.3,67.7,67.6,67.7c37.3,0,67.7-30.3,67.7-67.7
			C142.7,36.8,112.3,6.5,75,6.5z"/>
	</g>
	<g>
		<path class="st1" d="M94.9,61.6c-2.3,7-6.8,13.3-12.9,17.3c0.1,3.4,1,6.7,3.9,8.9c2.8,2.1,6.9,2.7,10.3,3.4
			c3.5,0.7,7.2,1.5,10.2,3.5c4.5,3.1,5.7,8,5.7,13.2l0.6,26.6l-36.4,12.1l-37.5-12.1L38,107.8c0-5.2,1.2-10.1,5.7-13.2
			c3-2,6.7-2.8,10.2-3.5c3.3-0.7,7.5-1.3,10.3-3.4c2.9-2.1,3.8-5.5,3.9-8.9c-1.4-0.9-2.8-2-4-3.1C35,64.7,42.7,20.1,75.2,21.5
			C97.5,22.4,105.2,47.7,94.9,61.6L94.9,61.6z M60.8,70.2c2.6,3.7,6,6.8,10,8.9c4,2.1,4.4,2.1,8.4,0c8.2-4.3,14-12.9,15.6-22.3
			c-0.8,1.8-2,3.7-3.8,5.2c3.4-7.7,2-15.1-3.1-18.8c-2.8,4.6-7.8,7.8-13.4,8.9c3.3-2,6-4.9,7.6-8.3c-3.7,6.5-11.4,9.8-18.8,8.6
			c4.6-0.9,8.8-3.5,11.5-7.5c-2.5,2.7-8.9,5.6-16.6,5.3C57,58.8,60,68.2,67.8,74C65.1,72.8,62.8,71.6,60.8,70.2L60.8,70.2z M75,26.4
			c-11.3,0-20.5,9.2-20.5,20.5c0,1.3,0.1,2.5,0.3,3.8c1.8-9.5,10.1-16.8,20.2-16.8s18.4,7.2,20.2,16.8c0.2-1.2,0.3-2.5,0.3-3.8
			C95.5,35.6,86.3,26.4,75,26.4L75,26.4z M80.7,79.6c-0.3,0.2-0.6,0.4-0.9,0.5c-4.3,2.3-5.2,2.3-9.6,0c-0.3-0.2-0.6-0.3-0.9-0.5
			c-0.8,11.3-9.6,11.5-17.5,13.2c4.7,6.4,13.3,10.8,23.2,10.8s18.5-4.3,23.2-10.8C90.3,91.1,81.5,90.9,80.7,79.6L80.7,79.6z
			 M44.9,95.3c-3.3,2.1-5.6,5.6-5.6,12.4h11.9C50.4,102.8,48.1,98.4,44.9,95.3L44.9,95.3z M98.8,107.8h11.9c0-6.8-2.3-10.4-5.6-12.4
			C101.9,98.4,99.6,102.8,98.8,107.8z"/>
	</g>
</g>
</svg>
