<?xml version="1.0" encoding="utf-8"?>
<!-- Generator: Adobe Illustrator 23.0.0, SVG Export Plug-In . SVG Version: 6.00 Build 0)  -->
<svg version="1.1" id="katman_1" xmlns="http://www.w3.org/2000/svg" xmlns:xlink="http://www.w3.org/1999/xlink" x="0px" y="0px"
	 viewBox="0 0 67.8 356" style="enable-background:new 0 0 67.8 356;" xml:space="preserve">
<style type="text/css">
	.st0{fill:#FFFFFF;}
</style>
<g>
	<g>
		<path class="st0" d="M52.3,317.1v4.5l-16.8,6.3c-2.3,0.8-3.8,1.9-4.6,3.3c-0.8,1.4-1.2,3.5-1.2,6.2v14.1h22.6v4.4H1.7v-19.5
			c0-5.3,1.2-9.3,3.6-12.2c2.4-2.9,5.8-4.3,10.3-4.3c3.3,0,6,0.9,8.2,2.6c2.2,1.7,3.8,4.2,4.7,7.4c0.2-1.5,0.9-2.7,1.8-3.8
			c1-1,2.5-1.9,4.4-2.6L52.3,317.1z M25.8,336.7c0-8.3-3.5-12.4-10.4-12.4c-6.7,0-10,4.1-10,12.4v14.9h20.4V336.7z"/>
		<path class="st0" d="M2.1,290.4v-5.3h5.3v5.3H2.1z M2.1,302.3V297h5.3v5.3H2.1z M50.5,302.3c-1.5,2.5-3.7,4.4-6.5,5.8
			c-2.8,1.3-6,2-9.7,2c-3.7,0-6.9-0.7-9.7-2c-2.8-1.3-4.9-3.3-6.5-5.8c-1.5-2.5-2.3-5.4-2.3-8.6c0-3.2,0.8-6.1,2.3-8.5
			c1.5-2.5,3.7-4.4,6.5-5.7c2.8-1.3,6-2,9.7-2c3.7,0,6.9,0.7,9.7,2c2.8,1.3,4.9,3.3,6.5,5.7c1.5,2.5,2.3,5.3,2.3,8.5
			C52.8,296.9,52,299.8,50.5,302.3z M45.1,285c-2.5-2.1-6.1-3.1-10.8-3.1c-4.6,0-8.2,1-10.8,3.1s-3.9,5-3.9,8.7
			c0,3.7,1.3,6.7,3.9,8.7c2.6,2.1,6.2,3.1,10.8,3.1c4.7,0,8.4-1,10.9-3.1s3.8-4.9,3.8-8.7C48.9,289.9,47.7,287,45.1,285z"/>
		<path class="st0" d="M18.1,243c1.5-2.4,3.7-4.2,6.5-5.6c2.8-1.3,6.1-2,9.8-2c3.7,0,6.9,0.7,9.7,2c2.7,1.3,4.9,3.2,6.4,5.6
			c1.5,2.4,2.3,5.2,2.3,8.3c0,3-0.7,5.5-2,7.6s-3.2,3.7-5.6,4.7h22.4v4.3h-41c-3.7,0-7,0.2-9.9,0.6v-4.1l7-0.6
			c-2.5-1-4.4-2.6-5.8-4.8c-1.3-2.2-2-4.7-2-7.7C15.8,248.1,16.6,245.4,18.1,243z M45.1,243.1C42.6,241,39,240,34.4,240
			c-4.6,0-8.3,1-10.9,3.1c-2.6,2.1-3.9,5-3.9,8.7c0,3.8,1.3,6.7,3.8,8.7c2.6,2,6.2,3.1,10.9,3.1c4.6,0,8.2-1,10.8-3.1
			c2.6-2,3.8-4.9,3.8-8.7C48.9,248.1,47.7,245.2,45.1,243.1z"/>
		<path class="st0" d="M50.5,220.4c-1.5,2.5-3.7,4.4-6.5,5.8c-2.8,1.3-6,2-9.7,2c-3.7,0-6.9-0.7-9.7-2c-2.8-1.3-4.9-3.3-6.5-5.8
			c-1.5-2.5-2.3-5.4-2.3-8.6c0-3.2,0.8-6.1,2.3-8.5c1.5-2.5,3.7-4.4,6.5-5.7c2.8-1.3,6-2,9.7-2c3.7,0,6.9,0.7,9.7,2
			c2.8,1.3,4.9,3.3,6.5,5.7c1.5,2.5,2.3,5.3,2.3,8.5C52.8,215.1,52,217.9,50.5,220.4z M45.1,203.1C42.6,201,39,200,34.3,200
			c-4.6,0-8.2,1-10.8,3.1s-3.9,5-3.9,8.7c0,3.7,1.3,6.7,3.9,8.7c2.6,2.1,6.2,3.1,10.8,3.1c4.7,0,8.4-1,10.9-3.1s3.8-4.9,3.8-8.7
			C48.9,208.1,47.7,205.2,45.1,203.1z"/>
		<path class="st0" d="M16.1,167.6l3.9,0.2c-0.2,0.9-0.3,2-0.3,3.3c0,3.6,1.1,6.3,3.4,8.1s5,2.7,8.2,2.7h20.9v4.3H26.6
			c-3.7,0-7,0.2-9.9,0.6v-4.1l6.6-0.6c-2.4-0.9-4.3-2.4-5.5-4.4c-1.3-2-1.9-4.3-1.9-6.9C15.8,169.5,15.9,168.5,16.1,167.6z"/>
		<path class="st0" d="M20.2,152.6h21.2c2.8,0,4.8-0.5,5.9-1.6c1.1-1.1,1.6-2.7,1.6-4.8c0-1.3-0.2-2.6-0.6-3.8h3.9
			c0.4,1.5,0.6,3.1,0.6,4.6c0,3.1-0.9,5.6-2.6,7.3c-1.8,1.8-4.4,2.7-7.9,2.7h-22v7h-3.5v-7H7.2l-1.6-4.3h11.1v-10.5h3.5V152.6z"/>
		<path class="st0" d="M16.7,104.6h35.6v4.3h-6.8c2.4,1,4.2,2.6,5.4,4.7c1.3,2.1,1.9,4.6,1.9,7.6c0,3.2-0.7,6-2.2,8.3
			c-1.5,2.4-3.6,4.2-6.4,5.5c-2.8,1.3-6,2-9.7,2c-3.7,0-6.9-0.7-9.8-2c-2.8-1.3-5-3.2-6.5-5.6c-1.5-2.4-2.3-5.1-2.3-8.3
			c0-2.9,0.6-5.4,1.8-7.5c1.2-2.1,3-3.7,5.4-4.8h-6.4V104.6z M45.1,112c-2.6-2-6.2-3.1-10.8-3.1c-4.7,0-8.3,1-10.9,3.1
			c-2.6,2-3.8,4.9-3.8,8.7c0,3.7,1.3,6.7,3.9,8.7c2.6,2.1,6.3,3.1,10.9,3.1c4.6,0,8.2-1,10.7-3.1c2.5-2.1,3.8-5,3.8-8.8
			C48.9,116.9,47.6,114,45.1,112z"/>
		<path class="st0" d="M2,93.4v-5.8h5.5v5.8H2z M63.9,98.9c0-1.9-0.5-3.4-1.6-4.5c-1.1-1.1-3-1.6-5.8-1.6H16.7v-4.3h40.5
			c3.5,0,6.2,0.9,8,2.6c1.8,1.7,2.6,4,2.6,7c0,1.3-0.2,2.7-0.6,4.3h-3.9C63.7,101.1,63.9,99.9,63.9,98.9z"/>
		<path class="st0" d="M52.3,76.6H0v-4.3h52.3V76.6z"/>
		<path class="st0" d="M16.7,30.2h35.6v4.3h-6.8c2.4,1,4.2,2.6,5.4,4.7c1.3,2.1,1.9,4.6,1.9,7.6c0,3.2-0.7,6-2.2,8.3
			c-1.5,2.4-3.6,4.2-6.4,5.5c-2.8,1.3-6,2-9.7,2c-3.7,0-6.9-0.7-9.8-2c-2.8-1.3-5-3.2-6.5-5.6c-1.5-2.4-2.3-5.1-2.3-8.3
			c0-2.9,0.6-5.4,1.8-7.5c1.2-2.1,3-3.7,5.4-4.8h-6.4V30.2z M45.1,37.6c-2.6-2-6.2-3.1-10.8-3.1c-4.7,0-8.3,1-10.9,3.1
			c-2.6,2-3.8,4.9-3.8,8.7c0,3.7,1.3,6.7,3.9,8.7c2.6,2.1,6.3,3.1,10.9,3.1c4.6,0,8.2-1,10.7-3.1c2.5-2.1,3.8-5,3.8-8.8
			C48.9,42.5,47.6,39.7,45.1,37.6z"/>
		<path class="st0" d="M16.1,0L20,0.2c-0.2,0.9-0.3,2-0.3,3.3c0,3.6,1.1,6.3,3.4,8.1s5,2.7,8.2,2.7h20.9v4.3H26.6
			c-3.7,0-7,0.2-9.9,0.6v-4.1l6.6-0.6C20.9,13.4,19,12,17.8,10c-1.3-2-1.9-4.3-1.9-6.9C15.8,1.9,15.9,0.9,16.1,0z"/>
	</g>
</g>
</svg>
