<?xml version="1.0" encoding="utf-8"?>
<!-- Generator: Adobe Illustrator 23.0.0, SVG Export Plug-In . SVG Version: 6.00 Build 0)  -->
<svg version="1.1" id="katman_1" xmlns="http://www.w3.org/2000/svg" xmlns:xlink="http://www.w3.org/1999/xlink" x="0px" y="0px"
	 viewBox="0 0 40 40" style="enable-background:new 0 0 40 40;" xml:space="preserve">
<style type="text/css">
	.st0{opacity:0.75;fill:#FFC931;}
</style>
<path class="st0" d="M14.4,21.7v13.6H1V25.1c0-4,0.6-7.7,1.8-11C4,10.8,6.1,7.7,9,4.8l5.2,3.8c-2.1,2.4-3.6,4.7-4.5,6.7
	c-0.9,2.1-1.4,4.2-1.7,6.4H14.4z M39,21.7v13.6H25.6V25.1c0-4,0.6-7.7,1.8-11c1.2-3.3,3.3-6.5,6.2-9.4l5.2,3.8
	c-2.1,2.4-3.6,4.7-4.5,6.7c-0.9,2.1-1.4,4.2-1.7,6.4H39z"/>
</svg>
