<?xml version="1.0" encoding="utf-8"?>
<!-- Generator: Adobe Illustrator 23.0.0, SVG Export Plug-In . SVG Version: 6.00 Build 0)  -->
<svg version="1.1" id="katman_1" xmlns="http://www.w3.org/2000/svg" xmlns:xlink="http://www.w3.org/1999/xlink" x="0px" y="0px"
	 viewBox="0 0 50 50" style="enable-background:new 0 0 50 50;" xml:space="preserve">
<style type="text/css">
	.st0{fill:#FFFFFF;}
</style>
<g>
	<g>
		<path class="st0" d="M33.5,44.4H6.2c-2.1,0-3.8-1.7-3.8-3.8V23.2c0-2.1,1.7-3.8,3.8-3.8h27.2c2.1,0,3.8,1.7,3.8,3.8v17.4
			C37.3,42.7,35.6,44.4,33.5,44.4L33.5,44.4z M6.2,23.2v17.4h27.2l0-17.4H6.2L6.2,23.2z"/>
	</g>
	<g>
		<path class="st0" d="M45.7,44.2c-0.3,0-0.6-0.1-0.9-0.2l-10.5-5.2c-0.6-0.3-1.1-1-1.1-1.7V26.7c0-0.7,0.4-1.4,1.1-1.7l10.5-5.2
			c0.6-0.3,1.3-0.3,1.9,0.1c0.6,0.3,0.9,1,0.9,1.6v20.8c0,0.7-0.3,1.3-0.9,1.6C46.4,44.1,46,44.2,45.7,44.2L45.7,44.2z M37.1,35.9
			l6.6,3.3V24.6l-6.6,3.3V35.9L37.1,35.9z"/>
	</g>
	<g>
		<path class="st0" d="M11.8,22.5c-4.7,0-8.4-3.8-8.4-8.4c0-4.7,3.8-8.4,8.4-8.4c4.7,0,8.4,3.8,8.4,8.4
			C20.2,18.7,16.4,22.5,11.8,22.5L11.8,22.5z M11.8,9.4c-2.5,0-4.6,2.1-4.6,4.6s2.1,4.6,4.6,4.6s4.6-2.1,4.6-4.6S14.3,9.4,11.8,9.4
			L11.8,9.4z"/>
	</g>
	<g>
		<path class="st0" d="M25.8,22.5c-4.7,0-8.4-3.8-8.4-8.4c0-4.7,3.8-8.4,8.4-8.4c4.7,0,8.4,3.8,8.4,8.4
			C34.2,18.7,30.5,22.5,25.8,22.5L25.8,22.5z M25.8,9.4c-2.5,0-4.6,2.1-4.6,4.6s2.1,4.6,4.6,4.6c2.5,0,4.6-2.1,4.6-4.6
			S28.3,9.4,25.8,9.4L25.8,9.4z"/>
	</g>
</g>
</svg>
